<?xml version="1.0" encoding="UTF-8"?>
<svg xmlns="http://www.w3.org/2000/svg" xmlns:xlink="http://www.w3.org/1999/xlink" width="30pt" height="30pt" viewBox="0 0 30 30" version="1.1">
<g id="surface4054">
<path style=" stroke:none;fill-rule:nonzero;fill:rgb(100%,100%,100%);fill-opacity:1;" d="M 5 2 L 5 23 L 25 23 L 25 2 L 23 3 L 21 2 L 19 3 L 17 2 L 15 3 L 13 2 L 11 3 L 9 2 L 7 3 Z M 25 23 L 25 25 L 5 25 L 5 23 C 3.894531 23 3 23.894531 3 25 C 3 26.105469 3.894531 27 5 27 L 25 27 C 26.105469 27 27 26.105469 27 25 C 27 23.894531 26.105469 23 25 23 Z M 10 7 L 20 7 C 20.550781 7 21 7.449219 21 8 C 21 8.550781 20.550781 9 20 9 L 10 9 C 9.449219 9 9 8.550781 9 8 C 9 7.449219 9.449219 7 10 7 Z M 10 13 L 16 13 C 16.550781 13 17 13.449219 17 14 C 17 14.550781 16.550781 15 16 15 L 10 15 C 9.449219 15 9 14.550781 9 14 C 9 13.449219 9.449219 13 10 13 Z M 20 13 C 20.550781 13 21 13.449219 21 14 C 21 14.550781 20.550781 15 20 15 C 19.449219 15 19 14.550781 19 14 C 19 13.449219 19.449219 13 20 13 Z M 10 17 L 14 17 C 14.550781 17 15 17.449219 15 18 C 15 18.550781 14.550781 19 14 19 L 10 19 C 9.449219 19 9 18.550781 9 18 C 9 17.449219 9.449219 17 10 17 Z M 20 17 C 20.550781 17 21 17.449219 21 18 C 21 18.550781 20.550781 19 20 19 C 19.449219 19 19 18.550781 19 18 C 19 17.449219 19.449219 17 20 17 Z M 20 17 "/>
</g>
</svg>
