<?xml version="1.0" encoding="UTF-8"?>
<svg xmlns="http://www.w3.org/2000/svg" xmlns:xlink="http://www.w3.org/1999/xlink" width="30pt" height="30pt" viewBox="0 0 30 30" version="1.1">
<g id="surface4244">
<path style=" stroke:none;fill-rule:nonzero;fill:rgb(100%,100%,100%);fill-opacity:1;" d="M 15 3 C 13.355469 3 12 4.355469 12 6 C 12 6.351562 12.074219 6.683594 12.1875 7 L 8 7 C 7.089844 7 6.292969 7.617188 6.066406 8.5 L 6.0625 8.5 L 2.101562 23.363281 L 2.105469 23.363281 C 2.035156 23.570312 2 23.785156 2 24 C 2 25.105469 2.894531 26 4 26 L 26 26 C 27.105469 26 28 25.105469 28 24 C 28 23.785156 27.964844 23.570312 27.894531 23.367188 L 27.894531 23.363281 L 23.9375 8.5 C 23.707031 7.617188 22.910156 7 22 7 L 17.8125 7 C 17.925781 6.683594 18 6.351562 18 6 C 18 4.355469 16.644531 3 15 3 Z M 15 5 C 15.5625 5 16 5.4375 16 6 C 16 6.5625 15.5625 7 15 7 C 14.4375 7 14 6.5625 14 6 C 14 5.4375 14.4375 5 15 5 Z M 14 10 L 16 10 L 16 11.898438 C 17.75 12.210938 18.90625 13.332031 18.941406 14.875 L 16.625 14.875 C 16.566406 14.179688 15.90625 13.691406 15.023438 13.691406 C 14.140625 13.691406 13.5625 14.113281 13.5625 14.765625 C 13.5625 15.308594 14 15.621094 15.035156 15.828125 L 16.308594 16.074219 C 18.257812 16.449219 19.132812 17.332031 19.132812 18.894531 C 19.132812 20.664062 17.964844 21.824219 16 22.121094 L 16 24 L 14 24 L 14 22.125 C 12.078125 21.855469 10.902344 20.757812 10.867188 19.121094 L 13.261719 19.121094 C 13.324219 19.839844 14.039062 20.296875 15.078125 20.296875 C 16.015625 20.296875 16.65625 19.847656 16.65625 19.199219 C 16.65625 18.648438 16.226562 18.355469 15.097656 18.128906 L 13.800781 17.871094 C 11.996094 17.527344 11.066406 16.542969 11.066406 14.992188 C 11.066406 13.347656 12.195312 12.195312 14 11.890625 Z M 14 10 "/>
</g>
</svg>
