<?xml version="1.0" encoding="UTF-8"?>
<svg xmlns="http://www.w3.org/2000/svg" xmlns:xlink="http://www.w3.org/1999/xlink" width="30pt" height="30pt" viewBox="0 0 30 30" version="1.1">
<g id="surface4624">
<path style=" stroke:none;fill-rule:nonzero;fill:rgb(100%,100%,100%);fill-opacity:1;" d="M 9.441406 3 C 3.992188 3.09375 3.433594 6.875 4.527344 11.214844 C 4.316406 11.335938 3.964844 11.722656 4.054688 12.410156 C 4.21875 13.695312 4.773438 14.019531 5.128906 14.046875 C 5.265625 15.246094 6.550781 16.777344 7 17 L 7 19 C 6 22 0 19 0 27 L 12 27 C 12 23.453125 13.988281 21.925781 15.648438 21.046875 C 14.089844 20.5 12.476562 20.429688 12 19 L 12 17 C 12.449219 16.777344 13.734375 15.246094 13.871094 14.046875 C 13.949219 13.765625 14.015625 12.753906 14.015625 12.527344 C 14.015625 11.277344 13.996094 8.695312 14.777344 6.671875 C 14.503906 5.316406 13.789062 4.171875 12.261719 4.019531 C 11.851562 3.34375 10.804688 3 9.441406 3 Z M 22.125 4 C 21 4 20.128906 5 20.128906 5 C 13.6875 5 17.265625 15.953125 15.375 17.527344 C 15.375 17.527344 16.378906 19.015625 20 19.015625 L 20 20.292969 C 19 23 14 22 14 27 L 30 27 C 30 22 25 23 24 20.292969 L 24 19.003906 C 27.640625 19.003906 28.484375 17.5625 28.484375 17.5625 C 26.445312 15.890625 30 4 22.125 4 Z M 22.125 4 "/>
</g>
</svg>
